<svg xmlns="http://www.w3.org/2000/svg" width="43" height="49" viewBox="0 0 43 49">
  <g id="Group_19" data-name="Group 19" transform="translate(-2700 512)">
    <g id="iconfinder_infinity_3688475" transform="translate(2697.927 -526.951)">
      <path id="Path_1" data-name="Path 1" d="M33.952,33a9.04,9.04,0,0,1-7.2-3.56L21.288,24l5.469-5.44A9.024,9.024,0,1,1,33.952,33Zm-.1-14.4a5.56,5.56,0,0,0-4.4,2.136L26.112,24l3.342,3.264a5.559,5.559,0,0,0,4.4,2.136,5.4,5.4,0,0,0,0-10.8Z" fill="#3d3d3d" fill-rule="evenodd"/>
      <path id="Path_2" data-name="Path 2" d="M21.243,29.44a9,9,0,1,1,0-10.88L26.712,24Zm-2.7-8.7a5.56,5.56,0,0,0-4.4-2.136,5.4,5.4,0,0,0,0,10.8,5.559,5.559,0,0,0,4.4-2.136L21.888,24Z" fill="#3d3d3d" fill-rule="evenodd"/>
    </g>
    <text id="NBMJ" transform="translate(2700 -469)" fill="#3d3d3d" font-size="17" font-family="Exo-Regular, Exo"><tspan x="0" y="0">NBMJ</tspan></text>
  </g>
</svg>
