<svg xmlns="http://www.w3.org/2000/svg" width="36.923" height="36.923" viewBox="0 0 36.923 36.923">
  <defs>
    <style>
      .cls-1 {
        fill: #ff0080;
        fill-rule: evenodd;
      }
    </style>
  </defs>
  <g id="gh" transform="translate(-11.538 -11.538)">
    <g id="github" transform="translate(11 11)">
      <path id="Path_40" data-name="Path 40" class="cls-1" d="M14.425,36.517c0-.45-.016-1.64-.025-3.22-5.135,1.144-6.219-2.538-6.219-2.538a4.982,4.982,0,0,0-2.05-2.769c-1.676-1.175.127-1.15.127-1.15A3.888,3.888,0,0,1,9.086,28.79a3.877,3.877,0,0,0,5.373,1.573,4.086,4.086,0,0,1,1.172-2.531c-4.1-.478-8.409-2.1-8.409-9.356a7.422,7.422,0,0,1,1.9-5.079A6.967,6.967,0,0,1,9.3,8.388s1.55-.509,5.076,1.941a17.064,17.064,0,0,1,9.245,0C27.148,7.879,28.7,8.388,28.7,8.388a6.955,6.955,0,0,1,.184,5.01,7.409,7.409,0,0,1,1.9,5.079c0,7.272-4.317,8.872-8.43,9.341A4.575,4.575,0,0,1,23.6,31.324c0,2.531-.024,4.573-.024,5.193,0,.507.333,1.095,1.271.91A18.9,18.9,0,0,0,37.461,19.468,18.7,18.7,0,0,0,19,.538,18.7,18.7,0,0,0,.538,19.468,18.9,18.9,0,0,0,13.165,37.429C14.087,37.6,14.425,37.018,14.425,36.517Z"/>
    </g>
  </g>
</svg>
