<svg xmlns="http://www.w3.org/2000/svg" width="24.173" height="19.845" viewBox="0 0 24.173 19.845">
  <g id="iconfinder_github_394189" transform="translate(1159.228 -1667.22)">
    <path id="Path_34" data-name="Path 34" d="M-1135.153,1676.893h.016a.084.084,0,0,0,.082-.068.084.084,0,0,0-.067-.1,19.029,19.029,0,0,0-4.774-.417,9.718,9.718,0,0,0,.288-2.318,5.247,5.247,0,0,0-1.406-3.734,4.216,4.216,0,0,0-.236-3c-.666-.237-2.318.61-3.221,1.207a11.926,11.926,0,0,0-5.747.111c-2.152-1.541-3.29-1.3-3.29-1.3a4.537,4.537,0,0,0-.194,3.248,4.367,4.367,0,0,0-1.236,3.233,7.939,7.939,0,0,0,.366,2.552,25.656,25.656,0,0,0-4.592.422.084.084,0,0,0-.061.1.084.084,0,0,0,.081.063l.02,0a25.71,25.71,0,0,1,4.612-.417,5.02,5.02,0,0,0,.2.467,14.754,14.754,0,0,0-4.592.745l-.243.061a.084.084,0,0,0-.061.1.084.084,0,0,0,.081.063l.02,0,.243-.061a14.751,14.751,0,0,1,4.638-.742c.809,1.468,2.368,2.382,5,2.634a2.246,2.246,0,0,0-.888,1.451,2.893,2.893,0,0,1-2.159.173c-1.034-.327-1.43-2.374-2.978-2.082-.335.063-.269.284.021.472a3.046,3.046,0,0,1,1.259,1.5,2.538,2.538,0,0,0,2.565,1.741,7.732,7.732,0,0,0,1.18-.083s.013,1.594.013,2.214c0,.715-.964.916-.964,1.26,0,.136.319.149.576.149.507,0,1.562-.423,1.562-1.166,0-.59.009-2.575.009-2.922a1.117,1.117,0,0,1,.407-1s.051,4.052-.1,4.595c-.173.639-.486.548-.486.833,0,.424,1.27.1,1.691-.826.325-.724.183-4.7.183-4.7l.347-.007s.02,1.82.008,2.651c-.012.861-.071,1.95.441,2.464.336.338,1.426.93,1.426.389,0-.315-.6-.574-.6-1.425V1681.5c.476,0,.4,1.289.4,1.289l.035,2.394a1.221,1.221,0,0,0,.943,1.238c.37.129,1.161.164,1.2-.053s-.953-.541-.962-1.217c-.006-.412.018-.652.018-2.443s-.24-2.453-1.078-2.98c2.586-.266,4.186-.906,4.966-2.619a18.879,18.879,0,0,1,4.954.788.072.072,0,0,0,.025,0,.084.084,0,0,0,.079-.059.084.084,0,0,0-.056-.1,18.765,18.765,0,0,0-4.931-.793c.061-.149.116-.3.166-.469A18.845,18.845,0,0,1-1135.153,1676.893Zm-19.591,2.724c-.1,0-.187-.056-.187-.125s.084-.125.187-.125.188.056.188.125S-1154.641,1679.617-1154.744,1679.617Zm.58.32c-.1,0-.187-.056-.187-.125s.084-.125.188-.125.187.056.187.125S-1154.061,1679.937-1154.164,1679.937Zm.167.3c0-.069.084-.125.187-.125s.188.056.188.125-.084.125-.187.125S-1154,1680.3-1154,1680.232Zm.5.6c-.1,0-.187-.056-.187-.125s.084-.125.188-.125.187.056.187.125S-1153.392,1680.836-1153.5,1680.836Zm.359.452c-.1,0-.187-.056-.187-.125s.084-.125.188-.125.187.056.187.125S-1153.033,1681.289-1153.136,1681.289Zm.477.384c-.1,0-.187-.056-.187-.125s.084-.125.187-.125.188.056.188.125S-1152.556,1681.672-1152.659,1681.672Zm.674.251c-.1,0-.187-.056-.187-.125s.084-.125.187-.125.187.056.187.125S-1151.882,1681.923-1151.986,1681.923Zm.679,0c-.1,0-.187-.056-.187-.125s.084-.125.188-.125.188.056.188.125S-1151.2,1681.923-1151.307,1681.923Zm.679-.108c-.1,0-.187-.056-.187-.125s.084-.125.188-.125.187.056.187.125S-1150.525,1681.815-1150.628,1681.815Zm5.306-2.66c-.559.018-1.139.028-1.723.028s-1.159-.01-1.691-.029c-2.841-.1-4.406-1.3-4.406-3.376a2.707,2.707,0,0,1,.633-1.679,3.163,3.163,0,0,1,2.531-1.047c.074,0,.206.008.475.025.575.036,1.538.1,2.491.1.863,0,1.736-.064,2.205-.1.22-.016.308-.022.365-.022a2.777,2.777,0,0,1,3.13,2.854C-1141.31,1677.33-1142.008,1679.046-1145.323,1679.155Z" fill="#7d7d7d"/>
    <path id="Path_35" data-name="Path 35" d="M-1151.467,1694.1c.447,0,.008-.693,0-1.018C-1151.472,1693.395-1151.914,1694.1-1151.467,1694.1Z" transform="translate(-3.843 -13.143)" fill="#7d7d7d"/>
    <path id="Path_36" data-name="Path 36" d="M-1134.918,1689.08a.083.083,0,0,0-.083.083.475.475,0,0,1-.5.389.559.559,0,0,1-.12-.013.655.655,0,0,1-.25-.115l-.04-.031a.671.671,0,0,1-.095-.1.261.261,0,0,1-.065-.132.083.083,0,0,0-.083-.083.083.083,0,0,0-.083.083.252.252,0,0,0,.014.078.523.523,0,0,0,.071.135.806.806,0,0,0,.123.136.863.863,0,0,0,.168.116.786.786,0,0,0,.261.084.729.729,0,0,0,.1.006.728.728,0,0,0,.437-.141c.016-.012.032-.025.047-.038a.639.639,0,0,0,.079-.085.507.507,0,0,0,.1-.242.4.4,0,0,0,0-.049A.082.082,0,0,0-1134.918,1689.08Z" transform="translate(-11.683 -11.11)" fill="#7d7d7d"/>
    <path id="Path_37" data-name="Path 37" d="M-1135.3,1687.708a.294.294,0,0,0,.078.077.315.315,0,0,0,.036.021.291.291,0,0,0,.081.025.286.286,0,0,0,.044,0,.285.285,0,0,0,.16-.049.286.286,0,0,0,.052-.045.282.282,0,0,0,.05-.082.283.283,0,0,0,.025-.111.287.287,0,0,0-.287-.287.287.287,0,0,0-.2.084l-.006.007a.286.286,0,0,0-.038.052.285.285,0,0,0-.034.086.288.288,0,0,0-.006.058.291.291,0,0,0,.006.058A.3.3,0,0,0-1135.3,1687.708Z" transform="translate(-12.136 -10.185)" fill="#7d7d7d"/>
    <path id="Path_38" data-name="Path 38" d="M-1141.581,1681.632a1.3,1.3,0,0,0-.19-.191,1.028,1.028,0,0,0-.213-.134.852.852,0,0,0-.232-.071.823.823,0,0,0-.122-.009c-.657,0-1.189.793-1.189,1.772s.532,1.661,1.189,1.661a.958.958,0,0,0,.122-.008.948.948,0,0,0,.232-.062,1.021,1.021,0,0,0,.213-.119,1.2,1.2,0,0,0,.19-.171,1.432,1.432,0,0,0,.161-.22,2.1,2.1,0,0,0,.272-1.082,2.347,2.347,0,0,0-.272-1.127A1.651,1.651,0,0,0-1141.581,1681.632Z" transform="translate(-7.981 -7.119)" fill="#7d7d7d"/>
    <path id="Path_39" data-name="Path 39" d="M-1129.269,1681.23c-.657,0-1.189.793-1.189,1.772s.532,1.661,1.189,1.661,1.189-.682,1.189-1.661S-1128.61,1681.23-1129.269,1681.23Z" transform="translate(-14.623 -7.121)" fill="#7d7d7d"/>
  </g>
</svg>
