<svg xmlns="http://www.w3.org/2000/svg" width="19.934" height="19.845" viewBox="0 0 19.934 19.845">
  <g id="black" transform="translate(-16.053 -16.154)">
    <g id="linkedin" transform="translate(16.053 16.154)">
      <path id="Path_9" data-name="Path 9" d="M4.234,19V5.875H.178V19Zm0-17.777A2,2,0,0,0,2.156-.846a2,2,0,0,0-2.1,2.069A1.99,1.99,0,0,0,2.107,3.292h.024A2,2,0,0,0,4.234,1.223ZM10.852,19V11.521A3.043,3.043,0,0,1,11,10.436a2.436,2.436,0,0,1,2.284-1.628A2.42,2.42,0,0,1,15.9,11.521V19h4.084V11.321c0-4.113-2.2-6.027-5.124-6.027a4.433,4.433,0,0,0-4.04,2.256L10.852,5.8H6.775c.059,1.256,0,13.2,0,13.2Z" transform="translate(-0.053 0.846)" fill="#7d7d7d" fill-rule="evenodd"/>
    </g>
  </g>
</svg>
