<svg xmlns="http://www.w3.org/2000/svg" width="27.66" height="19.845" viewBox="0 0 27.66 19.845">
  <path id="iconfinder_79-upwork_1929180" d="M25.719,16.343c-2.98,0-5.228,1.968-6.128,5.06a27.207,27.207,0,0,1-3.148-6.8H13.3v8.264a2.98,2.98,0,0,1-5.959,0V14.656H4.3V22.92a6.128,6.128,0,1,0,12.256,0V21.515A28.947,28.947,0,0,0,18.8,25.282l-1.968,9.164h3.2l1.349-6.69a7.83,7.83,0,0,0,4.329,1.237,6.325,6.325,0,0,0,0-12.649Zm0,9.5a5.744,5.744,0,0,1-3.542-1.405l.337-1.237v-.056c.225-1.349.956-3.6,3.261-3.6A3.143,3.143,0,0,1,28.924,22.7,3.306,3.306,0,0,1,25.719,25.844Z" transform="translate(-4.3 -14.6)" fill="#7d7d7d"/>
</svg>
